<svg width="805" height="420" viewBox="0 0 805 420" fill="none" xmlns="http://www.w3.org/2000/svg">
<path d="M7.11716 2.13884H50.6895V83.2619H129.856V115.803H7.11716V2.13884Z" fill="#C0A474"/>
<path d="M216.941 0H223.845C233.971 0 243.176 0.712946 251.461 2.13884C259.849 3.46288 266.855 5.24525 272.48 7.48593C278.208 9.62477 283.169 12.3238 287.363 15.583C291.658 18.7403 295.034 21.9486 297.488 25.2077C299.943 28.4669 301.887 32.0317 303.319 35.9019C304.853 39.7722 305.825 43.286 306.234 46.4433C306.745 49.6007 307.001 52.9108 307.001 56.3737V60.9569C307.001 64.4198 306.745 67.7299 306.234 70.8872C305.825 74.0446 304.853 77.6093 303.319 81.5814C301.887 85.4517 299.943 89.0674 297.488 92.4284C295.136 95.6876 291.812 98.9467 287.516 102.206C283.22 105.465 278.259 108.215 272.634 110.456C267.008 112.696 260.002 114.479 251.615 115.803C243.33 117.229 234.073 117.942 223.845 117.942H216.941C206.713 117.942 197.405 117.229 189.018 115.803C180.733 114.479 173.727 112.696 167.999 110.456C162.373 108.215 157.413 105.465 153.117 102.206C148.821 98.9467 145.445 95.6876 142.991 92.4284C140.638 89.0674 138.695 85.4517 137.161 81.5814C135.729 77.6093 134.757 74.0446 134.246 70.8872C133.836 67.7299 133.632 64.4198 133.632 60.9569V56.3737C133.632 52.9108 133.836 49.6007 134.246 46.4433C134.757 43.286 135.729 39.7722 137.161 35.9019C138.695 32.0317 140.638 28.4669 142.991 25.2077C145.445 21.9486 148.821 18.7403 153.117 15.583C157.413 12.3238 162.373 9.62477 167.999 7.48593C173.727 5.24525 180.733 3.46288 189.018 2.13884C197.405 0.712946 206.713 0 216.941 0ZM261.894 59.5819V57.4431C261.894 54.0821 261.28 50.9757 260.053 48.1239C258.826 45.1702 256.729 42.3184 253.763 39.5685C250.899 36.8186 246.603 34.6288 240.875 32.9992C235.147 31.3696 228.294 30.5548 220.316 30.5548C212.134 30.5548 205.178 31.3696 199.451 32.9992C193.723 34.6288 189.427 36.8186 186.563 39.5685C183.699 42.3184 181.654 45.1702 180.426 48.1239C179.301 50.9757 178.738 54.0821 178.738 57.4431V59.2764C178.738 62.6374 179.352 65.8457 180.58 68.9012C181.807 71.8548 183.853 74.8084 186.716 77.7621C189.58 80.6138 193.876 82.9055 199.604 84.6369C205.434 86.3683 212.338 87.2341 220.316 87.2341C228.294 87.2341 235.147 86.4193 240.875 84.7897C246.705 83.0582 251.052 80.7666 253.916 77.9148C256.78 75.063 258.826 72.1603 260.053 69.2067C261.28 66.1512 261.894 62.943 261.894 59.5819Z" fill="#C0A474"/>
<path d="M361.433 29.791V49.3461H411.449C420.245 49.3461 424.643 46.0869 424.643 39.5685V39.4157C424.643 32.9992 420.245 29.791 411.449 29.791H361.433ZM361.433 76.8454V115.803H317.86V2.13884H421.575C453.589 2.13884 469.596 11.8655 469.596 31.3187V32.9992C469.596 36.8695 468.829 40.3833 467.295 43.5406C465.761 46.698 463.715 49.2442 461.158 51.1794C458.703 53.1145 456.249 54.6422 453.794 55.7626C451.441 56.8829 449.038 57.7486 446.583 58.3597C453.845 59.9893 459.573 63.1467 463.766 67.8317C467.96 72.415 470.057 78.2713 470.057 85.4008V102.206C470.057 108.113 470.773 112.391 472.205 115.039V115.803H427.712C426.791 114.784 426.331 112.798 426.331 109.845V96.5533C426.331 89.8312 424.541 84.8915 420.961 81.7342C417.483 78.475 411.551 76.8454 403.164 76.8454H361.433Z" fill="#C0A474"/>
<path d="M482.072 115.803V2.13884H563.079C575.763 2.13884 587.014 3.15733 596.833 5.19432C606.652 7.23131 614.579 9.93032 620.613 13.2914C626.648 16.6524 631.558 20.7264 635.342 25.5133C639.229 30.3002 641.888 35.1381 643.32 40.0268C644.752 44.9156 645.468 50.2118 645.468 55.9153V60.4986C645.468 66.1003 644.803 71.3455 643.474 76.2343C642.246 81.1231 639.74 86.0628 635.956 91.0534C632.274 96.044 627.466 100.322 621.534 103.886C615.704 107.349 607.777 110.201 597.753 112.442C587.832 114.682 576.325 115.803 563.233 115.803H482.072ZM525.644 31.9298V85.7063H558.016C586.144 85.7063 600.208 76.8454 600.208 59.1236V58.207C600.208 40.6889 586.144 31.9298 558.016 31.9298H525.644Z" fill="#C0A474"/>
<path d="M734.272 117.942H720.31C673.874 117.942 650.656 104.498 650.656 77.6093V76.0815H698.524C699.342 86.7757 708.854 92.1228 727.061 92.1228H728.442C734.272 92.1228 739.13 91.8682 743.017 91.359C746.904 90.7479 749.767 89.9331 751.609 88.9146C753.45 87.7942 754.677 86.6739 755.291 85.5535C756.007 84.3314 756.365 82.9564 756.365 81.4286V81.2759C756.365 79.137 755.802 77.4565 754.677 76.2343C753.654 74.9103 751.097 73.7899 747.006 72.8733C743.017 71.8548 737.187 71.2437 729.516 71.04L708.343 70.4289C671.01 69.4104 652.343 58.0033 652.343 36.2075V34.8325C652.343 30.8604 652.906 27.2957 654.031 24.1383C655.156 20.8791 657.202 17.7218 660.168 14.6663C663.134 11.6108 667.021 9.0646 671.828 7.02761C676.635 4.99062 682.926 3.36103 690.699 2.13884C698.575 0.814794 707.678 0.152772 718.009 0.152772H731.663C777.895 0.152772 801.011 12.1201 801.011 36.0547V37.2769H753.603C752.682 29.2308 743.477 25.2077 725.987 25.2077H724.453C717.293 25.2077 711.769 25.6661 707.883 26.5827C703.996 27.3975 701.592 28.3651 700.672 29.4854C699.751 30.5039 699.291 31.8789 699.291 33.6103V33.7631C699.291 35.4945 699.802 36.9204 700.825 38.0408C701.95 39.1611 704.405 40.1796 708.19 41.0963C711.974 41.911 717.293 42.3694 724.146 42.4712L744.704 42.9295C766.286 43.5406 781.731 46.5452 791.038 51.9432C800.346 57.2394 805 65.642 805 77.151V79.2898C805 83.4656 804.489 87.285 803.466 90.7479C802.443 94.1089 800.397 97.5718 797.329 101.137C794.26 104.599 790.169 107.553 785.055 109.997C780.043 112.34 773.19 114.275 764.496 115.803C755.904 117.229 745.83 117.942 734.272 117.942Z" fill="#C0A474"/>
<path d="M85.9565 420H80.2389C67.4354 420 56.1957 418.735 46.5198 416.204C36.9416 413.674 29.4648 410.56 24.0892 406.861C18.7137 403.066 14.3644 398.589 11.0414 393.431C7.71835 388.273 5.56815 383.504 4.59078 379.124C3.61341 374.745 3.12473 370.171 3.12473 365.402V361.168C3.12473 356.302 3.56455 351.728 4.44418 347.446C5.42154 343.164 7.52288 338.492 10.7482 333.431C13.9735 328.273 18.225 323.894 23.5028 320.293C28.8783 316.595 36.4041 313.529 46.08 311.096C55.8536 308.565 67.24 307.3 80.2389 307.3H85.9565C95.046 307.3 103.354 307.884 110.879 309.052C118.503 310.22 124.856 311.728 129.938 313.577C135.118 315.427 139.663 317.665 143.572 320.293C147.579 322.823 150.707 325.402 152.955 328.03C155.203 330.658 157.011 333.48 158.379 336.497C159.845 339.417 160.774 342.044 161.165 344.38C161.654 346.716 161.898 349.003 161.898 351.241V353.139H118.649C115.326 342.044 103.354 336.497 82.7312 336.497C58.3948 336.497 46.2266 344.964 46.2266 361.898V363.65C46.2266 366.862 46.7641 369.927 47.8392 372.847C49.0121 375.767 50.8691 378.638 53.4102 381.46C56.0491 384.283 59.8608 386.521 64.8454 388.175C69.9277 389.83 75.9385 390.657 82.8778 390.657C88.9375 390.657 94.2642 390.122 98.8578 389.051C103.451 387.883 106.921 386.618 109.267 385.256C111.612 383.893 113.567 382.19 115.131 380.146C116.695 378.103 117.623 376.643 117.916 375.767C118.21 374.891 118.503 373.918 118.796 372.847H161.898V375.183C161.898 378.492 161.409 381.898 160.432 385.402C159.455 388.808 157.304 392.701 153.981 397.08C150.658 401.363 146.358 405.158 141.08 408.467C135.9 411.679 128.521 414.404 118.943 416.642C109.462 418.881 98.4668 420 85.9565 420Z" fill="#C0A474"/>
<path d="M213.499 335.767V354.453H261.293C269.698 354.453 273.901 351.339 273.901 345.11V344.964C273.901 338.833 269.698 335.767 261.293 335.767H213.499ZM213.499 380.73V417.956H171.864V309.344H270.969C301.56 309.344 316.856 318.638 316.856 337.227V338.833C316.856 342.531 316.123 345.889 314.657 348.906C313.191 351.923 311.236 354.356 308.793 356.205C306.447 358.054 304.101 359.514 301.756 360.584C299.508 361.655 297.211 362.482 294.865 363.066C301.804 364.623 307.278 367.64 311.285 372.117C315.292 376.497 317.296 382.093 317.296 388.905V404.964C317.296 410.608 317.98 414.696 319.348 417.226V417.956H276.833C275.953 416.983 275.513 415.085 275.513 412.263V399.562C275.513 393.139 273.803 388.419 270.382 385.402C267.059 382.287 261.39 380.73 253.376 380.73H213.499Z" fill="#C0A474"/>
<path d="M328.777 309.344H449.433V335.913H369.826V349.49H447.82V375.913H369.826V390.803H450.605V417.956H328.777V309.344Z" fill="#C0A474"/>
<path d="M553.088 373.285L534.762 335.913L516.877 373.285H553.088ZM574.932 417.956L566.429 400.438H504.122L495.766 417.956H453.543L507.494 309.344H563.497L620.526 417.956H574.932Z" fill="#C0A474"/>
<path d="M625.28 417.956V309.344H682.455L715.881 370.365L749.894 309.344H804.724V417.956H763.528V350.22L725.264 417.956H704.006L665.889 350.22V417.956H625.28Z" fill="#C0A474"/>
<path d="M110.763 284.041H103.118C85.9969 284.041 70.967 282.349 58.0283 278.966C45.2202 275.582 35.2221 271.417 28.0339 266.472C20.8458 261.397 15.0299 255.41 10.5862 248.513C6.14263 241.615 3.26736 235.238 1.96041 229.382C0.653471 223.526 0 217.409 0 211.032V205.371C0 198.864 0.588125 192.747 1.76437 187.021C3.07132 181.295 5.88125 175.048 10.1942 168.281C14.5071 161.383 20.1923 155.527 27.2498 150.712C34.438 145.766 44.5014 141.667 57.4402 138.413C70.5096 135.03 85.7355 133.338 103.118 133.338H110.763C122.918 133.338 134.027 134.119 144.091 135.68C154.285 137.242 162.78 139.259 169.576 141.732C176.503 144.205 182.58 147.198 187.808 150.712C193.166 154.095 197.348 157.544 200.354 161.058C203.36 164.572 205.778 168.346 207.608 172.38C209.568 176.284 210.81 179.798 211.333 182.922C211.986 186.045 212.313 189.103 212.313 192.097V194.634H154.481C150.037 179.798 134.027 172.38 106.451 172.38C73.9076 172.38 57.6362 183.702 57.6362 206.347V208.69C57.6362 212.984 58.355 217.084 59.7927 220.988C61.361 224.892 63.8442 228.731 67.2422 232.505C70.771 236.279 75.8681 239.273 82.5335 241.485C89.3296 243.697 97.3673 244.804 106.647 244.804C114.75 244.804 121.872 244.088 128.015 242.656C134.158 241.095 138.797 239.403 141.934 237.581C145.071 235.759 147.685 233.481 149.776 230.748C151.867 228.015 153.108 226.063 153.501 224.892C153.893 223.721 154.285 222.419 154.677 220.988H212.313V224.111C212.313 228.536 211.66 233.091 210.353 237.776C209.046 242.331 206.17 247.537 201.727 253.393C197.283 259.119 191.533 264.195 184.475 268.619C177.548 272.914 167.681 276.558 154.873 279.551C142.195 282.545 127.492 284.041 110.763 284.041Z" fill="#C0A474"/>
<path d="M335.292 221.573L310.787 171.599L286.87 221.573H335.292ZM364.502 281.308L353.132 257.883H269.814L258.64 281.308H202.18L274.323 136.071H349.211L425.471 281.308H364.502Z" fill="#C0A474"/>
<path d="M487.503 171.404V196.391H551.413C562.652 196.391 568.272 192.227 568.272 183.898V183.702C568.272 175.504 562.652 171.404 551.413 171.404H487.503ZM487.503 231.529V281.308H431.827V136.071H564.351C605.259 136.071 625.712 148.499 625.712 173.356V175.504C625.712 180.449 624.732 184.939 622.772 188.973C620.811 193.008 618.198 196.261 614.93 198.734C611.794 201.206 608.657 203.159 605.52 204.59C602.514 206.022 599.443 207.128 596.306 207.909C605.586 209.991 612.904 214.025 618.263 220.012C623.621 225.868 626.301 233.351 626.301 242.461V263.934C626.301 271.483 627.215 276.948 629.045 280.332V281.308H572.193C571.017 280.007 570.429 277.469 570.429 273.695V256.712C570.429 248.122 568.142 241.81 563.567 237.776C559.124 233.612 551.543 231.529 540.826 231.529H487.503Z" fill="#C0A474"/>
<path d="M641.653 136.071H802.995V171.599H696.545V189.754H800.839V225.087H696.545V244.999H804.564V281.308H641.653V136.071Z" fill="#C0A474"/>
</svg>
