<svg width="12 0" height="100" viewBox="0 0 109 92" fill="none" xmlns="http://www.w3.org/2000/svg">
<path d="M47.002 76.001C51.4202 76.001 55.002 79.5827 55.002 84.001C55.002 88.4193 51.4202 92.001 47.002 92.001C42.5837 92.001 39.002 88.4193 39.002 84.001C39.002 79.5827 42.5837 76.001 47.002 76.001ZM84.002 76.001C88.4202 76.001 92.002 79.5827 92.002 84.001C92.002 88.4193 88.4202 92.001 84.002 92.001C79.5837 92.001 76.002 88.4193 76.002 84.001C76.002 79.5827 79.5837 76.001 84.002 76.001ZM47.002 81.001C45.3451 81.001 44.002 82.3441 44.002 84.001C44.002 85.6578 45.3451 87.001 47.002 87.001C48.6588 87.001 50.002 85.6578 50.002 84.001C50.002 82.3441 48.6588 81.001 47.002 81.001ZM84.002 81.001C82.3451 81.001 81.002 82.3441 81.002 84.001C81.002 85.6578 82.3451 87.001 84.002 87.001C85.6588 87.001 87.002 85.6578 87.002 84.001C87.002 82.3441 85.6588 81.001 84.002 81.001ZM14.7002 0.523438C18.5195 0.523458 21.8696 3.07166 22.8906 6.75195L36.9521 57.4463C37.3727 58.9615 38.7526 60.0107 40.3252 60.0107L90.3477 60.0098C91.9969 60.0096 93.4217 58.8585 93.7686 57.2461L101.279 22.3193C101.48 21.3854 100.768 20.5039 99.8125 20.5039H42.002C40.0692 20.5037 38.502 18.9367 38.502 17.0039C38.5022 15.0711 40.0701 13.5049 42.0029 13.5049L99.8125 13.5039C105.226 13.504 109.26 18.4981 108.122 23.791L100.613 58.7178C99.573 63.5553 95.2957 67.0105 90.3477 67.0107H40.3252C35.6073 67.0107 31.4683 63.8635 30.207 59.3174L16.1455 8.62207C15.9651 7.97327 15.3746 7.52376 14.7012 7.52344H4.00781C2.07492 7.52331 0.507813 5.95636 0.507812 4.02344C0.508018 2.09075 2.07513 0.524631 4.00781 0.524414L14.7002 0.523438Z" fill="white"/>
</svg>
