<svg width="1125" height="217" viewBox="0 0 1125 217" fill="none" xmlns="http://www.w3.org/2000/svg">
<path d="M328.463 174.067H326.232C318.669 174.067 311.946 173.296 306.063 171.755C300.18 170.148 295.493 168.157 292.002 165.78C288.512 163.338 285.635 160.48 283.372 157.203C281.11 153.862 279.558 150.65 278.718 147.566C277.942 144.418 277.554 141.206 277.554 137.929V135.231C277.554 131.826 277.942 128.614 278.718 125.594C279.493 122.511 281.013 119.363 283.275 116.15C285.602 112.874 288.576 110.079 292.196 107.766C295.881 105.389 300.827 103.462 307.033 101.984C313.303 100.442 320.511 99.6715 328.657 99.6715H332.438C340.842 99.6715 348.212 100.346 354.547 101.695C360.947 102.98 365.86 104.586 369.286 106.514C372.777 108.377 375.589 110.657 377.723 113.356C379.921 115.99 381.343 118.399 381.989 120.583C382.636 122.703 382.991 124.952 383.056 127.329V127.425H354.353C354.224 126.847 353.998 126.301 353.674 125.787C353.416 125.209 352.769 124.438 351.735 123.474C350.701 122.511 349.408 121.708 347.856 121.065C346.37 120.358 344.139 119.748 341.166 119.234C338.192 118.656 334.798 118.367 330.984 118.367C314.37 118.367 306.063 124.277 306.063 136.098V137.159C306.063 142.234 308.099 146.538 312.172 150.072C316.245 153.541 322.451 155.276 330.79 155.276C334.345 155.276 337.578 155.051 340.487 154.601C343.396 154.087 345.723 153.477 347.468 152.77C349.279 152.063 350.798 151.292 352.026 150.457C353.319 149.622 354.192 148.851 354.644 148.144C355.161 147.438 355.42 146.827 355.42 146.313H330.111V132.34H383.541V172.718H366.183C365.408 168.928 364.276 165.619 362.79 162.792C355.937 170.309 344.495 174.067 328.463 174.067Z" fill="#066E31"/>
<path d="M419.922 118.463V130.798H451.533C457.093 130.798 459.873 128.742 459.873 124.631V124.534C459.873 120.487 457.093 118.463 451.533 118.463H419.922ZM419.922 148.144V172.718H392.382V101.021H457.933C478.167 101.021 488.284 107.156 488.284 119.427V120.487C488.284 122.928 487.8 125.145 486.83 127.136C485.86 129.128 484.567 130.734 482.951 131.955C481.4 133.175 479.848 134.139 478.297 134.846C476.81 135.552 475.291 136.099 473.739 136.484C478.329 137.512 481.949 139.503 484.6 142.459C487.25 145.35 488.575 149.044 488.575 153.541V164.142C488.575 167.868 489.028 170.566 489.933 172.236V172.718H461.812C461.23 172.076 460.939 170.823 460.939 168.96V160.576C460.939 156.336 459.808 153.22 457.545 151.228C455.347 149.172 451.598 148.144 446.297 148.144H419.922Z" fill="#066E31"/>
<path d="M496.169 101.021H575.974V118.56H523.32V127.522H574.908V144.964H523.32V154.794H576.75V172.718H496.169V101.021Z" fill="#066E31"/>
<path d="M584.71 101.021H664.515V118.56H611.861V127.522H663.449V144.964H611.861V154.794H665.291V172.718H584.71V101.021Z" fill="#066E31"/>
<path d="M673.251 101.021H704.087L745.977 141.784V101.021H773.322V172.718H745.783L700.596 129.256V172.718H673.251V101.021Z" fill="#066E31"/>
<path d="M811.521 172.718V120.583H780.394V101.021H870.187V120.583H839.06V172.718H811.521Z" fill="#066E31"/>
<path d="M904.86 118.463V130.798H936.472C942.031 130.798 944.811 128.742 944.811 124.631V124.534C944.811 120.487 942.031 118.463 936.472 118.463H904.86ZM904.86 148.144V172.718H877.321V101.021H942.872C963.106 101.021 973.223 107.156 973.223 119.427V120.487C973.223 122.928 972.738 125.145 971.768 127.136C970.799 129.128 969.506 130.734 967.889 131.955C966.338 133.175 964.786 134.139 963.235 134.846C961.748 135.552 960.229 136.099 958.677 136.484C963.267 137.512 966.887 139.503 969.538 142.459C972.188 145.35 973.514 149.044 973.514 153.541V164.142C973.514 167.868 973.966 170.566 974.871 172.236V172.718H946.75C946.168 172.076 945.877 170.823 945.877 168.96V160.576C945.877 156.336 944.746 153.22 942.484 151.228C940.286 149.172 936.536 148.144 931.235 148.144H904.86Z" fill="#066E31"/>
<path d="M1008.55 101.021V172.718H981.107V101.021H1008.55Z" fill="#066E31"/>
<path d="M1068.08 99.6715H1072.44C1078.84 99.6715 1084.66 100.121 1089.9 101.021C1095.2 101.856 1099.63 102.98 1103.18 104.393C1106.8 105.743 1109.94 107.445 1112.59 109.501C1115.3 111.493 1117.44 113.516 1118.99 115.572C1120.54 117.628 1121.77 119.877 1122.67 122.318C1123.64 124.759 1124.26 126.976 1124.52 128.967C1124.84 130.959 1125 133.047 1125 135.231V138.122C1125 140.307 1124.84 142.395 1124.52 144.386C1124.26 146.378 1123.64 148.626 1122.67 151.132C1121.77 153.573 1120.54 155.854 1118.99 157.974C1117.5 160.03 1115.4 162.086 1112.68 164.142C1109.97 166.197 1106.83 167.932 1103.28 169.345C1099.72 170.759 1095.3 171.883 1089.99 172.718C1084.76 173.618 1078.91 174.067 1072.44 174.067H1068.08C1061.61 174.067 1055.73 173.618 1050.43 172.718C1045.19 171.883 1040.77 170.759 1037.15 169.345C1033.59 167.932 1030.46 166.197 1027.74 164.142C1025.03 162.086 1022.89 160.03 1021.34 157.974C1019.85 155.854 1018.63 153.573 1017.66 151.132C1016.75 148.626 1016.14 146.378 1015.81 144.386C1015.55 142.395 1015.43 140.307 1015.43 138.122V135.231C1015.43 133.047 1015.55 130.959 1015.81 128.967C1016.14 126.976 1016.75 124.759 1017.66 122.318C1018.63 119.877 1019.85 117.628 1021.34 115.572C1022.89 113.516 1025.03 111.493 1027.74 109.501C1030.46 107.445 1033.59 105.743 1037.15 104.393C1040.77 102.98 1045.19 101.856 1050.43 101.021C1055.73 100.121 1061.61 99.6715 1068.08 99.6715ZM1096.49 137.255V135.906C1096.49 133.786 1096.1 131.826 1095.33 130.027C1094.55 128.164 1093.23 126.365 1091.35 124.631C1089.54 122.896 1086.83 121.515 1083.21 120.487C1079.59 119.459 1075.25 118.945 1070.21 118.945C1065.04 118.945 1060.65 119.459 1057.02 120.487C1053.4 121.515 1050.69 122.896 1048.88 124.631C1047.07 126.365 1045.78 128.164 1045 130.027C1044.29 131.826 1043.93 133.786 1043.93 135.906V137.062C1043.93 139.182 1044.32 141.206 1045.1 143.133C1045.87 144.996 1047.17 146.86 1048.98 148.723C1050.79 150.522 1053.5 151.967 1057.12 153.059C1060.81 154.151 1065.17 154.697 1070.21 154.697C1075.25 154.697 1079.59 154.184 1083.21 153.156C1086.89 152.063 1089.64 150.618 1091.45 148.819C1093.26 147.02 1094.55 145.189 1095.33 143.326C1096.1 141.399 1096.49 139.375 1096.49 137.255Z" fill="#066E31"/>
<path d="M33.2983 114.057L100.288 215.619C100.288 215.619 67.3277 215.619 46.1262 212.406C27.1163 209.525 3.90124 205.98 0.694278 200.447C-1.48202 196.692 1.22876 182.6 12.0968 157.968C22.9648 133.336 33.2983 114.057 33.2983 114.057Z" fill="#066E31"/>
<path d="M128.354 216.511L179.901 76.5732C179.901 76.5732 195.803 100.313 214.866 139.938C232.454 176.495 237.928 195.272 234.718 200.804C232.539 204.558 218.7 209.845 191.958 212.584C165.216 215.324 128.354 216.511 128.354 216.511Z" fill="#066E31"/>
<path d="M122.043 1.60637C122.043 1.60637 133.721 10.174 149.124 30.7006C168.545 56.5821 172.463 65.6831 172.463 65.6831L122.221 200.804L122.043 1.60637Z" fill="#066E31"/>
<path d="M110.996 2.67732C110.996 2.67732 99.1492 13.1676 89.973 24.6319C74.829 43.5521 73.4037 48.5499 73.4037 48.5499L110.996 127.979V2.67732Z" fill="#066E31"/>
<path d="M65.9208 59.2594L110.996 154.396V212.584L39.018 102.99C39.018 102.99 46.5227 89.5952 51.6677 81.214C57.0157 72.502 65.9208 59.2594 65.9208 59.2594Z" fill="#066E31"/>
</svg>
