<svg width="70" height="70" viewBox="0 0 70 70" fill="none" xmlns="http://www.w3.org/2000/svg">
<path d="M50 0C61.0457 0 70 8.95431 70 20V50C70 60.873 61.3235 69.7192 50.5166 69.9932L50 70H20L19.4834 69.9932C8.84814 69.7235 0.276492 61.1519 0.00683594 50.5166L0 50V20C0 8.95431 8.95431 4.83193e-07 20 0H50ZM20 3C10.6112 3 3 10.6112 3 20V50C3 59.3888 10.6112 67 20 67H50C59.3888 67 67 59.3888 67 50V20C67 10.6112 59.3888 3 50 3H20ZM35.5 18C45.165 18 53 25.835 53 35.5C53 45.165 45.165 53 35.5 53C25.835 53 18 45.165 18 35.5C18 25.835 25.835 18 35.5 18ZM35.5 21C27.4919 21 21 27.4919 21 35.5C21 43.5081 27.4919 50 35.5 50C43.5081 50 50 43.5081 50 35.5C50 27.4919 43.5081 21 35.5 21ZM56 12C57.6569 12 59 13.3431 59 15C59 16.6569 57.6569 18 56 18C54.3431 18 53 16.6569 53 15C53 13.3431 54.3431 12 56 12Z" fill="#066E31"/>
</svg>
