<svg width="100" height="100" viewBox="0 0 90 91" fill="none" xmlns="http://www.w3.org/2000/svg">
<path d="M38 0C58.9868 0 76 17.0132 76 38C76 47.7301 72.3407 56.6039 66.3262 63.3262L88.8789 85.8789C90.0502 87.0504 90.0502 88.9496 88.8789 90.1211C87.7073 91.2927 85.8073 91.2927 84.6357 90.1211L61.9863 67.4717C55.4447 72.8022 47.0963 76 38 76C17.0132 76 0 58.9868 0 38C0 17.0132 17.0132 0 38 0ZM38 6C20.3269 6 6 20.3269 6 38C6 55.6731 20.3269 70 38 70C55.6731 70 70 55.6731 70 38C70 20.3269 55.6731 6 38 6Z" fill="white"/>
</svg>
