<svg width="1886" height="168" viewBox="0 0 1886 168" fill="none" xmlns="http://www.w3.org/2000/svg">
<path d="M113.298 168H108.334C91.5013 168 76.5388 166.259 63.4466 162.777C50.3545 159.15 39.9239 154.653 32.1549 149.285C24.386 143.772 17.9837 137.316 12.9483 129.917C7.91285 122.373 4.45997 115.119 2.58966 108.155C0.863219 101.047 0 93.7927 0 86.3938V80.3005C0 72.6114 0.863219 65.3575 2.58966 58.5389C4.3161 51.5751 7.69704 44.4663 12.7325 37.2124C17.9118 29.8135 24.5298 23.5026 32.5865 18.2798C40.7871 12.9119 51.7932 8.55958 65.6047 5.2228C79.5601 1.74093 95.6016 0 113.729 0H122.146C140.849 0 157.25 1.52331 171.349 4.56994C185.592 7.4715 196.526 11.0984 204.151 15.4508C211.92 19.658 218.179 24.8083 222.926 30.9015C227.818 36.8497 230.983 42.2901 232.422 47.2228C233.861 52.0104 234.652 57.0881 234.796 62.456V62.6736H170.917C170.63 61.3679 170.126 60.1347 169.407 58.9741C168.831 57.6684 167.393 55.9275 165.091 53.7513C162.789 51.5751 159.911 49.7617 156.459 48.3109C153.15 46.715 148.186 45.3368 141.568 44.1762C134.95 42.8705 127.397 42.2176 118.909 42.2176C81.9339 42.2176 63.4466 55.5648 63.4466 82.2591V84.6528C63.4466 96.114 67.9785 105.834 77.0424 113.813C86.1062 121.648 99.9177 125.565 118.477 125.565C126.39 125.565 133.583 125.057 140.057 124.041C146.532 122.881 151.711 121.503 155.595 119.907C159.624 118.311 163.005 116.57 165.738 114.684C168.616 112.798 170.558 111.057 171.565 109.461C172.716 107.865 173.291 106.487 173.291 105.326H116.966V73.772H235.875V164.953H197.246C195.519 156.394 193.002 148.922 189.693 142.539C174.442 159.513 148.977 168 113.298 168Z" fill="#066E31"/>
<path d="M316.84 42.4352V70.2901H387.193C399.566 70.2901 405.752 65.6477 405.752 56.3627V56.1451C405.752 47.0052 399.566 42.4352 387.193 42.4352H316.84ZM316.84 109.461V164.953H255.552V3.04663H401.436C446.467 3.04663 468.983 16.9016 468.983 44.6114V47.0052C468.983 52.5181 467.904 57.5233 465.746 62.0207C463.588 66.5181 460.71 70.1451 457.114 72.9016C453.661 75.658 450.208 77.8342 446.755 79.4301C443.446 81.0259 440.065 82.2591 436.612 83.1295C446.827 85.4508 454.884 89.9482 460.782 96.6218C466.681 103.15 469.63 111.492 469.63 121.648V145.585C469.63 154 470.637 160.093 472.652 163.865V164.953H410.068C408.773 163.503 408.126 160.674 408.126 156.466V137.534C408.126 127.959 405.608 120.922 400.573 116.425C395.681 111.782 387.337 109.461 375.539 109.461H316.84Z" fill="#066E31"/>
<path d="M486.53 3.04663H664.138V42.6528H546.956V62.8912H661.764V102.28H546.956V124.477H665.864V164.953H486.53V3.04663Z" fill="#066E31"/>
<path d="M683.579 3.04663H861.186V42.6528H744.004V62.8912H858.812V102.28H744.004V124.477H862.913V164.953H683.579V3.04663Z" fill="#066E31"/>
<path d="M880.627 3.04663H949.253L1042.48 95.0984V3.04663H1103.34V164.953H1042.05L941.484 66.8083V164.953H880.627V3.04663Z" fill="#066E31"/>
<path d="M1188.35 164.953V47.2228H1119.08V3.04663H1318.91V47.2228H1249.64V164.953H1188.35Z" fill="#066E31"/>
<path d="M1396.08 42.4352V70.2901H1466.43C1478.8 70.2901 1484.99 65.6477 1484.99 56.3627V56.1451C1484.99 47.0052 1478.8 42.4352 1466.43 42.4352H1396.08ZM1396.08 109.461V164.953H1334.79V3.04663H1480.67C1525.7 3.04663 1548.22 16.9016 1548.22 44.6114V47.0052C1548.22 52.5181 1547.14 57.5233 1544.98 62.0207C1542.82 66.5181 1539.95 70.1451 1536.35 72.9016C1532.9 75.658 1529.44 77.8342 1525.99 79.4301C1522.68 81.0259 1519.3 82.2591 1515.85 83.1295C1526.06 85.4508 1534.12 89.9482 1540.02 96.6218C1545.92 103.15 1548.87 111.492 1548.87 121.648V145.585C1548.87 154 1549.87 160.093 1551.89 163.865V164.953H1489.3C1488.01 163.503 1487.36 160.674 1487.36 156.466V137.534C1487.36 127.959 1484.84 120.922 1479.81 116.425C1474.92 111.782 1466.57 109.461 1454.77 109.461H1396.08Z" fill="#066E31"/>
<path d="M1626.84 3.04663V164.953H1565.77V3.04663H1626.84Z" fill="#066E31"/>
<path d="M1759.32 0H1769.03C1783.28 0 1796.23 1.01554 1807.88 3.04663C1819.68 4.93264 1829.53 7.4715 1837.44 10.6632C1845.5 13.7098 1852.48 17.5544 1858.38 22.1969C1864.42 26.6943 1869.17 31.2642 1872.62 35.9067C1876.07 40.5492 1878.81 45.6269 1880.82 51.1399C1882.98 56.6528 1884.35 61.658 1884.92 66.1554C1885.64 70.6528 1886 75.3679 1886 80.3005V86.829C1886 91.7617 1885.64 96.4767 1884.92 100.974C1884.35 105.471 1882.98 110.549 1880.82 116.207C1878.81 121.72 1876.07 126.87 1872.62 131.658C1869.31 136.301 1864.64 140.943 1858.59 145.585C1852.55 150.228 1845.57 154.145 1837.66 157.337C1829.75 160.528 1819.89 163.067 1808.09 164.953C1796.44 166.984 1783.42 168 1769.03 168H1759.32C1744.94 168 1731.84 166.984 1720.05 164.953C1708.39 163.067 1698.54 160.528 1690.48 157.337C1682.57 154.145 1675.59 150.228 1669.55 145.585C1663.51 140.943 1658.76 136.301 1655.3 131.658C1652 126.87 1649.26 121.72 1647.1 116.207C1645.09 110.549 1643.72 105.471 1643 100.974C1642.43 96.4767 1642.14 91.7617 1642.14 86.829V80.3005C1642.14 75.3679 1642.43 70.6528 1643 66.1554C1643.72 61.658 1645.09 56.6528 1647.1 51.1399C1649.26 45.6269 1652 40.5492 1655.3 35.9067C1658.76 31.2642 1663.51 26.6943 1669.55 22.1969C1675.59 17.5544 1682.57 13.7098 1690.48 10.6632C1698.54 7.4715 1708.39 4.93264 1720.05 3.04663C1731.84 1.01554 1744.94 0 1759.32 0ZM1822.55 84.8705V81.8238C1822.55 77.0363 1821.69 72.6114 1819.96 68.5492C1818.24 64.342 1815.29 60.2798 1811.12 56.3627C1807.09 52.4456 1801.04 49.3264 1792.99 47.0052C1784.93 44.6839 1775.29 43.5233 1764.07 43.5233C1752.56 43.5233 1742.78 44.6839 1734.72 47.0052C1726.66 49.3264 1720.62 52.4456 1716.59 56.3627C1712.56 60.2798 1709.69 64.342 1707.96 68.5492C1706.38 72.6114 1705.59 77.0363 1705.59 81.8238V84.4352C1705.59 89.2228 1706.45 93.7927 1708.18 98.1451C1709.9 102.352 1712.78 106.56 1716.81 110.767C1720.84 114.829 1726.88 118.093 1734.94 120.56C1743.14 123.026 1752.85 124.259 1764.07 124.259C1775.29 124.259 1784.93 123.098 1792.99 120.777C1801.19 118.311 1807.3 115.047 1811.33 110.984C1815.36 106.922 1818.24 102.788 1819.96 98.5803C1821.69 94.228 1822.55 89.658 1822.55 84.8705Z" fill="#066E31"/>
</svg>
