<svg width="72" height="72" viewBox="0 0 72 72" fill="none" xmlns="http://www.w3.org/2000/svg">
<path fill-rule="evenodd" clip-rule="evenodd" d="M45.9628 23.3797C47.776 22.6163 49.7198 24.1495 49.3996 26.0906L45.6181 49.0185C45.2535 51.2292 42.8255 52.4977 40.7973 51.396C39.1001 50.4742 36.5821 49.0553 34.3128 47.5725C33.1796 46.832 29.7098 44.4577 30.1363 42.7675C30.501 41.3223 36.3341 35.8925 39.6675 32.6633C40.9768 31.3949 40.3805 30.6621 38.8341 31.83C34.9981 34.7272 28.8395 39.132 26.8029 40.3717C25.006 41.4653 24.0678 41.652 22.9487 41.4653C20.9052 41.1248 19.0106 40.5975 17.4638 39.9563C15.3732 39.0897 15.475 36.2167 17.4624 35.38L45.9628 23.3797Z" fill="#066E31"/>
<circle cx="36" cy="36" r="34.5" stroke="#066E31" stroke-width="3"/>
</svg>
