<svg width="72" height="72" viewBox="0 0 72 72" fill="none" xmlns="http://www.w3.org/2000/svg">
<circle cx="36" cy="36" r="34.5" stroke="#066E31" stroke-width="3"/>
<path d="M20.8854 26.1387C17.3894 26.14 16.2355 26.172 13.2257 26.1825C10.9371 26.1906 18.215 39.566 22.4063 43.1406C26.5975 46.7153 31.9063 49.5729 36.8633 49.5729C39.3827 49.5729 38.3367 45.1052 40.8633 45.1052C42.8411 45.1052 44.5343 49.5729 48.3854 49.5729L56.8854 49.5729C60.8633 49.5729 50.3725 43.0925 50.386 39.0728C50.2763 35.8158 61.1277 26.3017 55.3869 26.1391C52.8936 26.0684 53.8842 26.1378 49.8898 26.1378C45.0133 26.1378 44.7206 35.7078 41.3854 37.0729C38.8633 38.1052 38.3855 34.6038 38.3855 34.6038C38.3855 34.6038 38.8633 27.1052 37.3633 26.5743C35.8633 26.0435 25.3898 26.1735 28.3898 26.5743C32.3633 27.1052 30.7237 37.3409 29.3898 37.0729C28.0559 36.8048 26.3898 34.5827 25.3898 32.5827C24.0167 29.8365 23.3898 26.1378 20.8854 26.1387Z" stroke="#066E31" stroke-width="3" stroke-linejoin="bevel"/>
</svg>
